<?xml version="1.0" standalone="no"?>
<!DOCTYPE svg PUBLIC "-//W3C//DTD SVG 20010904//EN"
 "http://www.w3.org/TR/2001/REC-SVG-20010904/DTD/svg10.dtd">
<svg version="1.0" xmlns="http://www.w3.org/2000/svg"
 width="1024.000000pt" height="1024.000000pt" viewBox="0 0 1024.000000 1024.000000"
 preserveAspectRatio="xMidYMid meet">

<g transform="translate(0.000000,1024.000000) scale(0.100000,-0.100000)"
fill="#000000" stroke="none">
<path d="M4845 8263 c-293 -26 -574 -83 -787 -159 -627 -226 -1104 -571 -1478
-1069 -170 -227 -243 -345 -366 -587 -38 -75 -71 -135 -73 -132 -8 7 -31 -18
-31 -34 0 -9 -12 -27 -27 -40 -16 -13 -23 -21 -17 -18 7 3 15 -1 18 -10 8 -22
9 -22 -17 -17 -14 3 -31 -2 -40 -12 -9 -9 -21 -14 -26 -11 -5 4 -18 -5 -29
-19 -11 -14 -29 -25 -41 -25 -13 0 -19 -5 -15 -14 3 -8 -3 -16 -16 -19 -13 -3
-19 -10 -15 -17 3 -6 2 -9 -3 -8 -6 2 -29 -14 -51 -36 -26 -24 -47 -36 -57
-32 -12 5 -14 1 -8 -16 5 -16 3 -20 -8 -15 -8 3 -21 1 -29 -5 -11 -8 -10 -9 4
-4 17 5 17 5 0 -19 -16 -22 -33 -30 -55 -26 -11 1 -68 -86 -69 -106 0 -11 -3
-13 -6 -5 -7 18 -33 -5 -33 -30 0 -10 -5 -16 -10 -13 -6 4 -19 -12 -29 -35
-11 -24 -22 -37 -26 -31 -3 6 -11 9 -16 5 -6 -4 -6 -11 2 -20 9 -11 7 -14 -12
-15 -17 -1 -19 -3 -6 -6 9 -2 17 -8 17 -13 0 -5 -8 -6 -17 -3 -12 5 -15 2 -10
-10 4 -11 -3 -20 -23 -29 -20 -8 -25 -15 -17 -20 9 -6 9 -10 1 -15 -6 -5 -10
-16 -8 -25 1 -10 -1 -18 -6 -18 -4 0 -6 -9 -3 -20 3 -12 -5 -31 -21 -51 -14
-17 -26 -37 -26 -45 0 -8 -11 -24 -25 -36 -13 -11 -22 -25 -19 -29 3 -5 -2 -6
-10 -3 -9 3 -16 10 -16 15 0 5 -5 9 -12 9 -6 0 -1 -12 13 -26 22 -24 23 -26 4
-24 -33 4 -41 0 -25 -10 13 -9 13 -11 0 -20 -10 -6 -11 -10 -2 -10 6 0 12 -5
12 -10 0 -6 -11 -8 -25 -4 -26 6 -35 -9 -13 -22 7 -4 8 -3 4 4 -4 7 -3 12 1
12 15 0 53 -31 53 -43 0 -7 -4 -6 -10 3 -8 13 -10 12 -10 -2 0 -10 -6 -18 -13
-18 -14 0 -44 -107 -33 -117 3 -4 6 3 6 15 0 12 5 22 11 22 8 0 9 -11 5 -31
-3 -17 -6 -37 -6 -43 0 -6 -4 -4 -10 4 -17 27 -22 2 -5 -29 15 -30 15 -31 -5
-31 -25 0 -27 -17 -2 -23 16 -4 16 -5 0 -6 -15 -1 -18 -11 -18 -63 0 -34 -3
-58 -7 -54 -4 4 -7 24 -6 44 l1 37 -7 -35 c-4 -19 -3 -40 1 -46 5 -6 9 -29 11
-50 2 -38 1 -39 -32 -42 l-34 -3 32 -20 c17 -10 31 -24 31 -31 0 -6 -11 -1
-25 12 l-25 23 0 -26 c0 -21 5 -27 23 -28 16 -1 18 -2 5 -6 -21 -5 -22 -16 -8
-44 13 -24 -4 -26 -26 -4 -9 8 -20 15 -26 15 -6 0 1 -11 17 -24 15 -13 23 -26
17 -30 -6 -3 -13 0 -16 6 -3 7 -3 2 0 -11 5 -19 3 -23 -9 -18 -12 5 -14 0 -6
-26 4 -18 8 -41 8 -52 0 -11 4 -38 10 -60 14 -55 14 -63 -7 -68 -13 -4 -11 -5
6 -6 24 -1 30 -16 10 -24 -7 -3 1 -6 19 -6 43 -1 52 -20 20 -43 -21 -15 -25
-25 -21 -47 3 -16 2 -31 -4 -34 -5 -4 -7 4 -4 18 3 19 0 25 -13 25 -12 0 -15
-5 -10 -20 3 -10 1 -28 -5 -40 -8 -14 -8 -26 0 -40 6 -11 7 -20 2 -20 -6 0
-12 -11 -14 -24 -4 -19 -1 -22 13 -19 28 8 69 -6 69 -22 0 -8 -9 -15 -20 -15
-26 0 -26 -30 0 -37 12 -3 20 -14 20 -26 0 -11 7 -29 17 -39 15 -17 14 -18
-16 -18 -19 0 -30 -4 -26 -10 9 -14 62 -12 68 3 3 6 6 1 6 -11 1 -16 -6 -26
-20 -29 -16 -4 -17 -8 -7 -14 19 -13 28 -11 28 6 0 8 5 15 10 15 15 0 12 -16
-5 -30 -9 -7 -13 -21 -10 -31 4 -11 2 -19 -4 -19 -6 0 -8 -7 -4 -16 4 -11 8
-12 13 -4 5 8 9 6 14 -5 4 -11 13 -15 24 -13 15 4 18 1 14 -18 -3 -20 0 -24
18 -24 19 0 20 -2 10 -15 -17 -20 -5 -32 15 -15 9 7 15 8 15 2 0 -6 -4 -12
-10 -14 -5 -1 -11 -19 -13 -39 -3 -31 -1 -36 15 -31 18 4 18 5 1 18 -16 12
-16 13 10 14 16 0 26 -4 23 -9 -3 -5 9 -16 27 -25 27 -13 29 -16 10 -16 -13 0
-23 5 -23 11 0 6 -6 9 -12 7 -7 -3 -13 -11 -13 -19 0 -8 -4 -18 -10 -22 -6 -5
-1 -6 10 -3 24 7 53 -8 36 -18 -6 -4 -11 -2 -11 5 0 7 -10 3 -23 -9 -13 -12
-30 -22 -38 -22 -12 0 -12 -2 1 -10 9 -5 19 -5 26 1 8 6 13 4 17 -8 2 -10 8
-26 12 -37 7 -15 5 -17 -13 -12 -11 4 -23 2 -27 -4 -3 -6 3 -10 17 -10 15 0
29 -11 41 -31 10 -18 15 -34 12 -37 -3 -3 -5 0 -5 6 0 7 -4 12 -9 12 -5 0 9
-29 32 -65 40 -61 44 -65 82 -66 l40 -2 -39 -6 -40 -6 37 -13 c20 -7 37 -18
37 -23 0 -6 -7 -6 -19 1 -11 5 -30 10 -43 9 -21 -1 -20 -2 5 -9 31 -9 63 -41
72 -71 4 -11 11 -19 18 -19 8 0 8 -3 -1 -12 -7 -7 -12 -18 -12 -26 0 -12 3
-12 15 -2 13 11 15 8 15 -14 0 -19 -4 -25 -12 -20 -9 5 -9 2 1 -9 11 -14 11
-20 0 -34 -11 -15 -11 -16 1 -6 21 19 30 16 30 -11 0 -16 5 -23 17 -22 14 1
19 -11 25 -58 4 -33 12 -62 17 -65 5 -3 11 -15 13 -26 3 -13 7 -5 12 23 4 23
12 42 17 42 6 0 8 -4 5 -9 -6 -10 16 -61 27 -61 4 0 7 -9 7 -19 0 -11 6 -22
13 -24 6 -3 3 -6 -7 -6 -16 -1 -17 -4 -8 -13 16 -16 32 5 25 31 -3 11 1 18 11
18 10 0 16 -9 16 -24 0 -26 12 -30 30 -8 10 12 10 18 -1 32 -13 16 -12 17 4 4
11 -9 15 -21 11 -34 -5 -16 -3 -19 10 -14 11 5 16 1 16 -13 0 -13 -5 -18 -15
-14 -8 4 -15 10 -15 15 0 15 -17 10 -24 -7 -3 -8 -2 -13 3 -9 14 8 39 -5 44
-23 4 -15 5 -15 6 1 2 30 17 19 31 -23 7 -22 19 -40 27 -40 9 0 13 -14 13 -43
0 -25 7 -52 16 -63 15 -19 16 -19 9 1 -15 41 -17 65 -6 65 6 0 11 -11 11 -24
0 -24 21 -49 36 -44 5 2 9 -1 9 -7 0 -5 -5 -9 -11 -7 -7 1 -16 -3 -20 -9 -5
-9 3 -10 28 -5 26 5 37 3 41 -7 4 -10 -2 -13 -21 -9 l-27 5 28 -27 c15 -14 36
-26 45 -26 20 -1 52 -60 52 -95 0 -20 5 -25 25 -25 16 0 25 -6 25 -15 0 -15
43 -87 67 -112 6 -7 13 -18 16 -25 3 -10 7 -10 17 -1 15 14 40 -5 40 -30 0 -8
7 -17 15 -21 8 -3 15 -12 15 -21 0 -8 8 -15 18 -14 10 0 12 3 5 6 -18 7 -16
23 2 23 8 0 15 -4 15 -10 0 -5 5 -10 11 -10 6 0 9 7 5 15 -3 8 -1 15 4 15 5 0
8 -20 7 -45 -1 -25 1 -45 5 -45 4 0 8 7 8 15 0 8 5 15 10 15 6 0 10 -7 10 -15
0 -8 5 -15 11 -15 5 0 7 -4 4 -10 -3 -5 0 -7 7 -5 9 4 20 -8 31 -30 14 -29 22
-35 47 -35 16 0 30 -4 30 -10 0 -5 7 -10 16 -10 9 0 12 -5 8 -12 -5 -9 -4 -10
4 -3 5 6 12 19 15 30 4 18 5 18 6 -2 0 -13 6 -23 11 -23 6 0 10 -9 10 -19 0
-19 25 -35 40 -26 4 3 10 -2 14 -10 3 -8 12 -15 21 -15 17 0 19 -9 5 -30 -5
-8 -12 -11 -17 -7 -4 5 -1 13 7 18 12 9 12 10 -2 5 -10 -3 -18 -2 -18 2 0 4
-9 8 -20 8 -19 0 -19 -1 2 -20 21 -19 36 -23 121 -30 39 -3 54 -10 78 -37 21
-23 29 -28 29 -16 0 13 9 17 35 17 28 0 35 -4 35 -20 0 -18 7 -20 55 -20 47 0
55 -3 55 -19 0 -12 9 -20 25 -23 14 -3 25 -2 25 2 0 5 9 6 20 3 11 -3 20 -12
20 -20 0 -8 5 -24 11 -35 8 -15 13 -17 19 -8 6 9 13 9 28 1 17 -9 21 -7 27 17
4 15 10 21 12 14 3 -6 9 -10 14 -6 5 3 9 -6 9 -20 0 -20 -5 -26 -22 -27 -18
-1 -19 -2 -5 -6 10 -3 24 1 32 7 18 15 20 -1 3 -18 -17 -17 0 -28 22 -14 24
15 50 16 50 2 0 -5 18 -10 40 -10 22 0 40 -4 40 -10 0 -5 9 -10 20 -10 11 0
20 -4 20 -10 0 -5 10 -10 23 -10 18 0 19 -2 7 -10 -13 -9 -13 -11 0 -20 8 -5
23 -10 33 -10 10 0 17 -8 17 -20 0 -17 7 -20 40 -20 22 0 40 5 40 10 0 7 6 7
19 0 11 -5 32 -9 48 -9 17 1 21 3 11 6 -10 2 -18 9 -18 14 0 12 7 11 31 -2 16
-8 23 -7 33 7 14 18 41 10 33 -10 -6 -14 59 -53 70 -42 4 4 1 11 -7 16 -11 7
-10 9 7 8 18 -2 20 -6 12 -27 -8 -20 -7 -22 5 -12 11 9 16 9 21 0 6 -8 10 -7
16 2 7 11 9 10 9 -3 0 -13 8 -18 28 -18 18 0 23 -3 14 -9 -11 -7 -10 -10 3
-15 24 -9 32 -7 16 3 -8 5 8 8 43 6 31 -2 63 -8 71 -15 12 -10 15 -10 15 2 0
7 9 14 20 14 11 0 20 -7 20 -14 0 -10 8 -13 25 -10 29 6 33 -6 8 -21 -10 -6
-13 -11 -7 -11 5 0 21 10 33 21 l23 22 -6 -24 c-7 -23 -7 -24 9 -4 13 17 17
18 25 5 8 -13 20 -16 97 -19 21 -1 33 -7 35 -18 2 -11 14 -17 39 -18 33 -2 35
0 32 24 -3 25 -3 25 6 3 10 -22 41 -31 41 -11 0 5 5 7 11 3 6 -3 16 0 21 7 7
10 8 8 5 -9 l-6 -23 100 7 c70 5 103 3 113 -5 8 -7 17 -8 20 -3 3 5 18 7 33 4
l28 -5 -25 21 c-14 11 -21 24 -17 28 4 5 12 2 17 -6 6 -8 10 -10 10 -5 0 6 7
-1 15 -15 12 -21 14 -22 12 -5 -1 11 -6 26 -11 34 -6 8 1 7 18 -4 14 -10 35
-15 47 -12 14 4 19 1 16 -7 -3 -6 3 -12 13 -12 15 0 16 4 9 18 -5 10 -15 18
-21 18 -6 0 -8 3 -5 6 4 4 13 1 22 -6 11 -9 33 -11 76 -6 35 3 69 2 80 -4 13
-7 19 -7 19 0 0 5 9 10 19 10 12 0 21 10 26 28 4 15 9 22 12 15 5 -13 31 -6
52 14 7 8 26 17 42 20 16 3 29 9 29 13 0 13 55 19 63 7 5 -8 7 -5 5 7 -2 15 7
24 40 36 23 9 39 20 35 25 -4 4 3 5 16 2 16 -4 34 2 56 19 32 24 51 31 41 16
-3 -5 1 -9 9 -9 8 0 12 4 10 8 -7 11 22 31 49 33 13 0 22 6 19 12 -2 6 9 14
26 17 17 4 48 23 69 44 22 21 42 38 45 38 4 0 17 9 29 20 13 10 25 19 28 20 3
0 4 3 2 8 -2 7 13 11 31 8 4 0 7 3 7 8 0 5 14 14 30 21 17 7 30 16 30 19 0 4
16 15 36 24 21 11 32 22 28 29 -4 6 -3 8 3 5 9 -6 45 18 85 56 10 9 18 14 18
10 0 -5 7 0 15 11 8 10 19 15 26 10 9 -5 10 -2 6 9 -6 15 2 21 23 19 3 0 15
13 25 29 11 16 24 29 28 29 4 0 22 11 40 26 18 14 36 24 41 24 5 -1 17 11 27
27 10 15 19 24 19 20 0 -4 9 1 20 11 12 11 38 28 60 38 22 10 40 22 40 27 0 4
7 7 15 7 8 0 15 5 15 10 0 6 7 10 15 10 8 0 15 4 15 10 0 5 16 17 35 26 19 9
35 20 35 25 0 8 163 119 175 119 3 0 11 5 18 10 7 6 37 26 67 46 183 121 402
311 493 429 18 22 48 58 69 80 198 215 434 564 565 835 211 436 296 829 295
1365 0 239 -11 360 -52 561 -58 288 -153 556 -302 846 -280 547 -718 1013
-1223 1300 -389 221 -837 365 -1255 403 -138 13 -546 18 -655 8z m695 -258
c108 -15 346 -72 542 -129 115 -34 394 -159 538 -242 416 -240 699 -507 965
-914 82 -125 222 -385 271 -503 46 -112 134 -368 149 -436 26 -117 55 -313 62
-418 l6 -103 -477 0 c-450 0 -477 1 -472 18 11 36 11 1731 0 1742 -7 7 -110
12 -312 13 l-302 2 0 103 0 102 -88 0 c-49 0 -151 3 -226 7 l-138 6 7 137 7
138 -146 7 c-80 4 -183 4 -230 0 l-84 -7 -6 -36 c-3 -20 -6 -133 -6 -249 l0
-213 -233 0 c-247 0 -267 3 -245 44 8 14 8 76 3 211 -5 104 -8 227 -8 273 l1
82 -220 0 -220 0 4 -169 c3 -159 -2 -203 -21 -173 -6 9 -58 12 -217 10 l-209
-3 -2 -110 c-2 -159 -2 -159 -10 -152 -3 4 -5 68 -4 142 l2 135 -232 0 -232 0
6 -135 c3 -74 2 -137 -2 -139 -4 -3 -145 -7 -315 -10 -170 -4 -312 -9 -317
-12 -4 -2 -7 -398 -6 -879 1 -480 -1 -877 -5 -881 -4 -3 -214 -7 -468 -8
l-460 -1 0 56 c0 73 17 240 36 354 28 170 143 510 240 708 40 82 181 318 242
407 147 212 381 469 547 601 284 227 665 427 996 524 142 41 457 101 599 114
147 14 550 5 690 -14z m-863 -957 c-3 -7 -5 -2 -5 12 0 14 2 19 5 13 2 -7 2
-19 0 -25z m-1154 -318 l130 0 -6 -321 c-5 -291 -4 -319 10 -307 25 20 206
229 233 268 42 60 142 181 225 273 l80 87 215 2 c167 1 214 -2 212 -11 -1 -7
-55 -74 -120 -148 -64 -75 -157 -186 -206 -247 -49 -61 -120 -147 -158 -190
-37 -43 -68 -82 -68 -86 0 -3 46 -67 102 -141 56 -74 154 -206 217 -294 63
-88 150 -204 193 -258 43 -54 78 -100 78 -103 0 -2 -94 -4 -209 -4 l-209 0
-64 78 c-36 42 -98 124 -138 182 -95 135 -201 264 -209 253 -4 -4 -49 -52
-100 -105 l-92 -97 1 -123 c1 -68 1 -135 1 -150 l-1 -28 -167 0 -168 0 -2 741
-2 742 46 -7 c25 -3 104 -6 176 -6z m2170 -15 c150 -27 264 -103 348 -232 63
-96 90 -177 96 -288 10 -172 -39 -297 -166 -426 -129 -129 -241 -169 -485
-169 l-138 0 3 -169 4 -169 -35 -5 c-19 -2 -100 -3 -180 -1 l-145 2 -3 739 -2
738 312 -3 c218 -2 337 -7 391 -17z m963 -201 c33 -33 108 -64 154 -64 14 0
50 7 80 16 44 13 54 13 61 2 5 -7 9 -282 9 -610 l0 -597 -185 -3 -185 -3 -1
270 c0 149 -1 326 -1 395 -1 69 0 260 2 425 3 291 3 299 19 250 9 -27 30 -63
47 -81z m-5215 -987 c-10 -9 -11 -8 -5 6 3 10 9 15 12 12 3 -3 0 -11 -7 -18z
m1036 -749 c32 -93 60 -168 63 -168 6 0 81 224 100 298 11 43 16 46 68 36 36
-7 30 4 97 -193 61 -182 51 -185 131 44 l52 150 76 3 c42 2 76 -1 76 -5 0 -9
-80 -218 -166 -435 l-59 -148 -52 0 -52 0 -20 54 c-11 29 -34 95 -52 145 -17
51 -35 88 -40 84 -6 -7 -80 -168 -120 -262 -7 -18 -15 -22 -32 -17 -12 3 -34
6 -48 6 -24 0 -28 7 -53 83 -14 46 -26 86 -26 90 0 10 -96 272 -125 339 -27
65 -29 64 67 63 l57 0 58 -167z m1188 147 c136 -66 208 -239 156 -376 -95
-251 -401 -272 -539 -39 -24 40 -27 55 -27 135 0 78 4 97 28 147 51 105 149
160 272 155 44 -2 85 -10 110 -22z m611 12 c90 -2 106 -6 141 -29 75 -50 111
-140 91 -231 -11 -55 -47 -102 -83 -111 -14 -4 -25 -11 -25 -16 0 -5 28 -50
62 -100 34 -49 60 -91 57 -93 -2 -1 -36 -1 -75 1 l-72 4 -51 84 -52 84 -49 0
-50 0 0 -85 0 -85 -70 0 -70 0 0 293 0 292 73 -2 c39 -2 118 -4 173 -6z m564
-122 l5 -130 27 40 c14 22 53 70 86 107 33 36 66 75 73 86 11 15 31 20 97 25
46 3 82 1 80 -4 -2 -4 -52 -67 -112 -139 -127 -154 -127 -128 -1 -277 86 -103
115 -142 115 -158 0 -6 -31 -9 -77 -8 l-77 1 -73 98 c-40 53 -73 101 -73 106
0 15 -21 8 -45 -17 -22 -21 -25 -33 -25 -103 0 -43 -2 -81 -4 -83 -2 -2 -33
-3 -68 -1 l-63 3 3 287 c1 158 2 289 2 292 0 3 28 5 63 5 l62 0 5 -130z m813
121 c26 -8 67 -26 92 -40 l45 -27 -25 -33 c-14 -18 -25 -38 -25 -44 0 -22 -17
-21 -65 3 -61 31 -127 33 -155 5 -11 -11 -20 -24 -20 -29 0 -18 30 -39 62 -46
102 -21 165 -46 197 -79 121 -124 -14 -315 -206 -291 -60 7 -158 53 -192 89
l-23 24 23 12 c12 7 31 23 43 37 l21 24 48 -26 c29 -17 69 -29 105 -32 49 -4
60 -2 75 15 10 11 17 31 15 43 -3 20 -14 26 -83 44 -146 37 -215 95 -215 179
0 49 25 93 74 132 66 53 128 65 209 40z m457 -112 l0 -114 118 0 117 0 -3 117
-3 118 70 -3 71 -4 0 -289 0 -289 -71 0 -72 0 6 109 c5 106 5 109 -16 115 -29
8 -181 8 -201 0 -13 -5 -16 -25 -16 -115 l0 -109 -65 0 -65 0 0 293 0 292 65
-3 65 -4 0 -114z m981 94 c116 -53 174 -143 173 -268 0 -61 -5 -85 -27 -127
-124 -240 -429 -229 -543 21 -22 49 -26 68 -22 120 18 217 225 343 419 254z
m699 7 c127 -41 188 -190 121 -298 -34 -55 -127 -97 -230 -104 l-81 -6 0 -78
0 -79 -70 0 -70 0 0 288 0 289 153 -2 c83 -1 163 -5 177 -10z m-6520 -75 c0
-5 -4 -10 -10 -10 -5 0 -10 5 -10 10 0 6 5 10 10 10 6 0 10 -4 10 -10z m-60
-189 c0 -15 -5 -18 -22 -13 -19 5 -20 7 -5 10 9 2 17 8 17 13 0 5 2 9 5 9 3 0
5 -9 5 -19z m-30 -145 c0 -3 -4 -8 -10 -11 -5 -3 -10 -1 -10 4 0 6 5 11 10 11
6 0 10 -2 10 -4z m-20 -46 c0 -5 -7 -7 -15 -4 -8 4 -15 8 -15 10 0 2 7 4 15 4
8 0 15 -4 15 -10z m22 -85 c-2 -14 -8 -25 -13 -25 -10 0 -12 34 -2 43 13 14
20 6 15 -18z m-27 -235 c3 -6 -1 -7 -9 -4 -18 7 -21 14 -7 14 6 0 13 -4 16
-10z m3816 -21 c44 -14 110 -77 109 -105 0 -10 -3 -429 -6 -931 l-6 -912 -27
4 c-14 3 -89 9 -166 15 -76 6 -141 13 -144 15 -2 3 -4 419 -3 926 0 721 3 923
13 935 41 50 153 76 230 53z m-2491 -19 l65 -2 -34 -15 c-19 -8 -43 -12 -53
-10 -14 4 -18 -1 -18 -19 0 -14 -6 -24 -14 -24 -8 0 -21 -3 -29 -6 -11 -4 -19
5 -27 30 -14 42 -8 54 22 51 13 -1 52 -3 88 -5z m4927 -415 c-2 -370 -4 -425
-17 -426 -10 0 -11 -2 -3 -6 26 -10 -175 -233 -211 -233 -14 0 -17 -3 -9 -8 9
-6 7 -12 -8 -22 -11 -8 -27 -27 -35 -42 -8 -16 -21 -28 -29 -28 -12 0 -14 83
-15 590 0 526 1 590 15 590 11 0 13 -5 8 -17 -5 -10 -6 -45 -2 -78 6 -62 7
-57 14 45 4 65 -8 60 150 60 l145 0 -3 -425z m183 421 c0 -2 -9 -6 -20 -9 -11
-3 -20 -1 -20 4 0 5 9 9 20 9 11 0 20 -2 20 -4z m43 -3 c-7 -2 -19 -2 -25 0
-7 3 -2 5 12 5 14 0 19 -2 13 -5z m-4925 -82 c-1 -46 -3 -59 -5 -31 -5 72 -11
86 -34 87 -43 4 -43 22 0 21 l41 0 -2 -77z m489 -123 c-4 -112 -7 -286 -8
-388 -1 -108 -4 -175 -9 -160 l-8 25 -2 -25 c-1 -14 -4 -19 -7 -12 -5 13 -83
17 -83 5 0 -5 -5 -39 -10 -76 -8 -57 -15 -73 -39 -93 -21 -17 -28 -30 -23 -46
3 -11 1 -19 -4 -16 -5 3 -18 8 -29 13 l-20 7 20 9 c17 8 15 9 -8 5 -20 -2 -25
0 -18 7 17 17 13 31 -4 17 -13 -11 -19 -9 -35 10 -11 12 -17 27 -13 33 3 5 2
7 -4 4 -6 -4 -18 0 -28 7 -15 11 -18 26 -16 82 1 38 6 227 10 420 5 194 11
357 15 363 5 7 60 11 168 11 l161 0 -6 -202z m2807 -128 c11 -13 15 -136 19
-736 l4 -721 -156 -36 c-86 -21 -165 -38 -176 -39 -20 -3 -20 5 -27 667 -5
369 -7 713 -5 765 2 89 3 95 27 108 36 19 294 12 314 -8z m-2351 -59 c15 -12
17 -65 17 -566 0 -305 -3 -560 -6 -568 -6 -17 -35 -1 -232 129 l-107 70 -3
400 c-2 219 0 431 3 471 8 86 -2 82 181 80 95 -2 136 -6 147 -16z m-2269 -33
c4 -17 2 -28 -4 -28 -5 0 -10 14 -10 32 0 36 4 35 14 -4z m5340 6 c33 -11 61
-14 89 -9 23 4 56 9 72 11 17 3 38 -1 49 -9 17 -13 18 -36 20 -438 l1 -425
-74 -54 c-41 -30 -115 -83 -165 -117 -87 -59 -91 -61 -98 -40 -8 28 -10 1044
-2 1075 8 27 40 29 108 6z m-2860 -23 c56 -44 111 -50 176 -17 49 25 54 25 76
11 l24 -15 0 -646 c0 -611 -1 -646 -17 -642 -10 3 -85 33 -168 67 l-150 62 3
582 c2 525 5 627 16 627 2 0 20 -13 40 -29z m-2399 -279 c-3 -3 -11 0 -18 7
-9 10 -8 11 6 5 10 -3 15 -9 12 -12z m55 -108 c0 -2 -9 -4 -20 -4 -11 0 -20 4
-20 9 0 5 9 7 20 4 11 -3 20 -7 20 -9z m1647 -76 c-2 -13 -4 -5 -4 17 -1 22 1
32 4 23 2 -10 2 -28 0 -40z m-108 -144 c2 -2 2 -7 -2 -10 -3 -3 -16 2 -29 11
l-23 17 25 -7 c14 -4 27 -9 29 -11z m130 -41 c0 -42 -3 -52 -9 -38 -12 28 -12
95 0 95 6 0 10 -25 9 -57z m-1523 -13 c8 0 14 -4 14 -10 0 -5 -4 -10 -8 -10
-14 0 -32 23 -31 40 1 11 2 11 6 -2 2 -10 11 -18 19 -18z m4 -30 c8 -5 11 -10
5 -10 -5 0 -17 5 -25 10 -8 5 -10 10 -5 10 6 0 17 -5 25 -10z m1507 -62 c-3
-8 -6 -5 -6 6 -1 11 2 17 5 13 3 -3 4 -12 1 -19z m-1472 -8 c10 -11 16 -20 13
-20 -3 0 -13 9 -23 20 -10 11 -16 20 -13 20 3 0 13 -9 23 -20z m252 -232 c-3
-8 -6 -5 -6 6 -1 11 2 17 5 13 3 -3 4 -12 1 -19z m343 -482 c0 -3 -4 -8 -10
-11 -5 -3 -10 -1 -10 4 0 6 5 11 10 11 6 0 10 -2 10 -4z m134 -65 c-3 -3 -15
6 -27 18 l-22 24 27 -19 c14 -10 24 -21 22 -23z m73 -57 c-3 -3 -12 -4 -19 -1
-8 3 -5 6 6 6 11 1 17 -2 13 -5z m3 -34 c0 -5 -4 -10 -9 -10 -6 0 -13 5 -16
10 -3 6 1 10 9 10 9 0 16 -4 16 -10z m65 -30 c3 -5 1 -10 -4 -10 -6 0 -11 5
-11 10 0 6 2 10 4 10 3 0 8 -4 11 -10z m-25 -20 c0 -5 -4 -10 -10 -10 -5 0
-10 5 -10 10 0 6 5 10 10 10 6 0 10 -4 10 -10z m70 -31 c11 -7 4 -8 -25 -3
-50 8 -58 14 -19 14 16 0 36 -5 44 -11z m224 -115 c3 -8 2 -12 -4 -9 -6 3 -10
10 -10 16 0 14 7 11 14 -7z m71 -44 c3 -5 -1 -10 -9 -10 -9 0 -16 5 -16 10 0
6 4 10 9 10 6 0 13 -4 16 -10z m15 -30 c0 -5 -4 -10 -9 -10 -6 0 -13 5 -16 10
-3 6 1 10 9 10 9 0 16 -4 16 -10z m650 -245 c0 -5 -5 -3 -10 5 -5 8 -10 20
-10 25 0 6 5 3 10 -5 5 -8 10 -19 10 -25z m430 -110 c5 -14 17 -25 26 -25 14
0 14 3 4 15 -10 13 -11 18 -1 28 10 9 11 8 6 -5 -4 -11 1 -20 15 -28 32 -17
11 -34 -24 -20 -35 13 -59 37 -51 50 9 15 15 12 25 -15z m925 -85 c3 -5 -1
-10 -10 -10 -9 0 -13 5 -10 10 3 6 8 10 10 10 2 0 7 -4 10 -10z m-274 -37 c13
-16 12 -17 -3 -4 -17 13 -22 21 -14 21 2 0 10 -8 17 -17z"/>
<path d="M2720 6450 l0 -59 -87 -3 -88 -3 -3 -49 c-2 -27 2 -54 8 -60 6 -6 41
-11 78 -11 l67 0 3 -40 c4 -48 23 -65 74 -65 33 0 38 3 38 24 0 13 3 38 6 56
l7 32 70 -5 c80 -5 107 10 107 62 0 47 -23 61 -95 61 l-63 0 -7 38 c-11 62
-30 82 -75 82 l-40 0 0 -60z"/>
<path d="M7455 6488 c-2 -7 -6 -31 -7 -53 l-3 -40 -75 -3 c-44 -2 -78 -8 -82
-15 -13 -20 -9 -71 8 -95 13 -19 24 -22 79 -22 l63 0 7 -41 c8 -46 23 -55 68
-42 28 7 33 14 37 48 l5 40 55 3 c64 3 80 18 80 74 0 32 -4 39 -26 44 -14 4
-40 4 -58 1 -33 -5 -34 -5 -40 40 -3 25 -11 52 -17 59 -14 18 -88 18 -94 2z"/>
<path d="M2774 5950 c-34 -11 -58 -51 -48 -82 5 -18 12 -19 70 -13 81 9 83 -3
12 -77 -50 -52 -88 -104 -88 -122 0 -12 201 1 213 13 12 12 -18 51 -40 51 -19
0 -17 6 18 57 65 95 42 168 -56 177 -27 3 -64 1 -81 -4z"/>
<path d="M7639 5931 c-54 -55 -31 -86 55 -76 76 10 74 -6 -10 -96 -47 -50 -64
-76 -62 -92 3 -24 -5 -23 159 -19 l80 2 -3 32 c-3 27 -8 33 -41 42 l-37 11 25
37 c56 83 55 113 -7 159 -57 41 -118 41 -159 0z"/>
<path d="M2460 5943 c-30 -11 -60 -47 -60 -71 0 -24 1 -24 60 -18 33 4 60 5
60 2 0 -3 -13 -20 -28 -38 -60 -69 -102 -130 -102 -149 0 -18 8 -19 109 -19
l109 0 7 27 c5 21 2 32 -15 45 -12 10 -31 18 -41 18 -26 0 -24 7 16 56 20 24
42 59 50 79 14 32 14 36 -5 55 -16 16 -33 20 -82 19 -35 0 -70 -3 -78 -6z"/>
<path d="M7334 5925 c-19 -19 -24 -34 -22 -58 l3 -32 58 3 c57 2 58 2 51 -20
-3 -13 -26 -44 -50 -70 -26 -27 -44 -57 -44 -70 0 -22 3 -23 100 -25 l100 -3
0 29 c0 15 -9 36 -19 45 -18 17 -19 21 -5 64 19 66 19 148 -2 156 -9 3 -45 6
-80 6 -56 0 -68 -3 -90 -25z"/>
<path d="M7536 5545 c-8 -21 -8 -129 0 -175 l6 -35 62 -3 63 -2 -3 112 -2 113
-60 3 c-48 2 -61 0 -66 -13z"/>
<path d="M2616 5534 c-3 -9 -6 -58 -6 -109 0 -105 0 -105 81 -105 l49 0 0 115
0 115 -59 0 c-44 0 -60 -4 -65 -16z"/>
<path d="M5398 6373 l-48 -4 0 -200 0 -199 125 0 c169 0 220 22 267 114 31 61
23 162 -18 212 -45 56 -85 72 -189 77 -49 3 -111 3 -137 0z"/>
<path d="M3473 4800 c-12 -5 -36 -28 -53 -51 -52 -72 -37 -170 35 -225 30 -23
48 -28 91 -28 65 0 99 22 132 85 41 77 19 154 -58 207 -35 23 -104 29 -147 12z"/>
<path d="M4170 4730 l0 -80 58 -1 c129 -2 152 8 152 73 0 28 -7 46 -25 63 -22
22 -32 25 -105 25 l-80 0 0 -80z"/>
<path d="M6905 4796 c-87 -39 -117 -154 -65 -241 55 -89 196 -86 256 5 36 54
40 98 15 148 -39 76 -140 119 -206 88z"/>
<path d="M7600 4726 l0 -86 73 0 c39 0 77 4 83 8 18 12 34 49 34 80 0 48 -36
72 -119 79 l-71 6 0 -87z"/>
<path d="M1345 5450 c-3 -5 -1 -10 4 -10 6 0 11 5 11 10 0 6 -2 10 -4 10 -3 0
-8 -4 -11 -10z"/>
<path d="M1140 4780 c0 -5 5 -10 10 -10 6 0 10 5 10 10 0 6 -4 10 -10 10 -5 0
-10 -4 -10 -10z"/>
<path d="M1080 4436 c0 -2 7 -6 15 -10 8 -3 15 -1 15 4 0 6 -7 10 -15 10 -8 0
-15 -2 -15 -4z"/>
<path d="M1160 4300 c0 -5 9 -10 20 -10 11 0 20 5 20 10 0 6 -9 10 -20 10 -11
0 -20 -4 -20 -10z"/>
<path d="M1185 3790 c3 -5 8 -10 11 -10 2 0 4 5 4 10 0 6 -5 10 -11 10 -5 0
-7 -4 -4 -10z"/>
<path d="M1207 3754 c6 -15 23 -19 23 -5 0 5 -7 11 -14 14 -10 4 -13 1 -9 -9z"/>
<path d="M1241 3734 c-6 -15 -9 -29 -6 -32 3 -4 8 4 12 16 6 26 23 30 23 5 0
-9 3 -14 6 -10 8 7 -5 47 -15 47 -4 0 -13 -12 -20 -26z"/>
<path d="M1190 3690 c0 -5 5 -10 10 -10 6 0 10 5 10 10 0 6 -4 10 -10 10 -5 0
-10 -4 -10 -10z"/>
<path d="M1288 3653 c6 -2 18 -2 25 0 6 3 1 5 -13 5 -14 0 -19 -2 -12 -5z"/>
<path d="M1560 3110 c0 -5 5 -10 10 -10 6 0 10 5 10 10 0 6 -4 10 -10 10 -5 0
-10 -4 -10 -10z"/>
<path d="M1720 2818 c0 -19 2 -20 10 -8 13 19 13 30 0 30 -5 0 -10 -10 -10
-22z"/>
<path d="M1893 2670 c13 -8 17 -22 15 -50 -1 -22 2 -43 6 -47 4 -4 6 17 4 47
-2 46 -6 55 -23 58 -19 3 -19 2 -2 -8z"/>
<path d="M2637 1906 c-4 -10 -5 -21 -2 -24 9 -9 17 6 13 25 -3 17 -4 17 -11
-1z"/>
<path d="M3054 1669 c-3 -6 -2 -15 3 -20 5 -5 9 -1 9 11 0 23 -2 24 -12 9z"/>
<path d="M3472 1500 c0 -14 2 -19 5 -12 2 6 2 18 0 25 -3 6 -5 1 -5 -13z"/>
<path d="M3806 1454 c-8 -22 -8 -24 9 -24 9 0 12 -6 9 -15 -5 -11 1 -15 22
-15 l28 0 -34 25 c-19 14 -29 25 -22 25 7 0 12 5 12 10 0 16 -17 12 -24 -6z"/>
<path d="M3717 1417 c-4 -10 2 -13 19 -9 13 2 24 8 24 13 0 14 -37 10 -43 -4z"/>
<path d="M3950 1371 c0 -6 5 -13 10 -16 6 -3 10 1 10 9 0 9 -4 16 -10 16 -5 0
-10 -4 -10 -9z"/>
<path d="M4178 1313 c7 -3 16 -2 19 1 4 3 -2 6 -13 5 -11 0 -14 -3 -6 -6z"/>
<path d="M4906 1285 c4 -8 13 -15 21 -15 12 0 12 2 -1 15 -8 8 -17 15 -20 15
-3 0 -3 -7 0 -15z"/>
<path d="M4378 1273 c7 -3 16 -2 19 1 4 3 -2 6 -13 5 -11 0 -14 -3 -6 -6z"/>
</g>
</svg>
